<svg width="200" height="200" viewBox="0 0 200 200" fill="none" xmlns="http://www.w3.org/2000/svg">
<path d="M75 118.75C71.5539 118.75 68.75 121.554 68.75 125C68.75 128.446 71.5539 131.25 75 131.25C78.4461 131.25 81.25 128.446 81.25 125C81.25 121.554 78.4461 118.75 75 118.75Z" fill="#A2A2A2"/>
<path d="M125 118.75C121.554 118.75 118.75 121.554 118.75 125C118.75 128.446 121.554 131.25 125 131.25C128.446 131.25 131.25 128.446 131.25 125C131.25 121.554 128.446 118.75 125 118.75Z" fill="#A2A2A2"/>
<path d="M187.488 149.767C187.485 149.732 187.484 149.698 187.48 149.663C187.467 149.548 187.45 149.433 187.425 149.32C187.423 149.311 187.421 149.302 187.419 149.293C187.081 147.787 180.526 119.466 162.162 98.4367C161.79 95.0535 163.199 80.0727 164.448 66.7891C165.681 53.6824 167.078 38.8266 167.712 26.7965C168.772 6.67344 167.182 3.14453 165.609 1.41602C164.778 0.502734 163.674 0 162.5 0C154.418 0 147.282 9.63633 137.405 22.9738C129.869 33.1496 121.341 44.6539 111.025 53.3973C107.974 52.9688 104.112 52.7344 99.9999 52.7344C95.8874 52.7344 92.0261 52.9688 88.9745 53.3973C78.6585 44.6539 70.1304 33.1496 62.5949 22.9738C52.7179 9.63633 45.5816 0 37.4999 0C36.3261 0 35.2218 0.502734 34.391 1.41602C32.8175 3.14414 31.2277 6.67344 32.2878 26.7965C32.9214 38.8266 34.3187 53.6824 35.5515 66.7891C36.8011 80.0723 38.2101 95.0535 37.8382 98.4367C19.4734 119.466 12.9191 147.787 12.5812 149.293C12.5792 149.302 12.5773 149.311 12.5749 149.32C12.5495 149.433 12.5324 149.548 12.5203 149.663C12.5163 149.698 12.5148 149.732 12.512 149.767C12.5058 149.849 12.5031 149.932 12.5035 150.014C12.5035 150.053 12.5038 150.091 12.5054 150.129C12.5089 150.217 12.5171 150.304 12.5281 150.392C12.5316 150.419 12.5331 150.447 12.5374 150.474C12.555 150.589 12.5788 150.702 12.6089 150.815C12.6136 150.833 12.6203 150.85 12.6257 150.868C12.6531 150.962 12.6843 151.055 12.7206 151.147C12.7324 151.176 12.7453 151.205 12.7578 151.234C12.7925 151.315 12.8308 151.395 12.8726 151.473C12.8874 151.501 12.9023 151.529 12.9179 151.556C12.9656 151.639 13.0179 151.72 13.0738 151.799C13.087 151.818 13.0984 151.837 13.112 151.855C13.1831 151.952 13.2597 152.045 13.3429 152.134C13.3445 152.136 13.346 152.137 13.3476 152.139C13.3589 152.152 13.3722 152.162 13.3839 152.174C13.4413 152.233 13.4995 152.292 13.5624 152.347C13.5753 152.359 13.589 152.368 13.6019 152.379C13.6281 152.402 13.6554 152.422 13.6828 152.444C13.7503 152.497 13.8191 152.548 13.8894 152.595C13.916 152.613 13.9425 152.631 13.9699 152.648C14.0644 152.707 14.1605 152.762 14.2589 152.81C14.2613 152.811 14.2636 152.813 14.2663 152.814C14.3734 152.866 14.4824 152.91 14.5933 152.948C14.6144 152.956 14.6355 152.962 14.6566 152.969C14.7464 152.998 14.837 153.023 14.9285 153.044C14.9558 153.05 14.9831 153.057 15.0109 153.062C15.123 153.084 15.2351 153.103 15.3484 153.113C15.3515 153.113 15.3542 153.113 15.3574 153.113C15.446 153.121 15.5347 153.125 15.6238 153.125C15.6425 153.125 15.6613 153.122 15.6804 153.122C15.7269 153.121 15.7734 153.118 15.8199 153.115C15.8949 153.11 15.9691 153.103 16.0437 153.093C16.0671 153.09 16.0906 153.09 16.114 153.086C19.7785 152.506 24.2312 152.185 27.1738 152.347L25.1609 158.386C24.8921 159.192 24.9632 160.071 25.3566 160.824C25.7503 161.576 26.4328 162.135 27.2476 162.374C27.5839 162.472 60.9312 172.327 75.7179 184.905C76.8632 186.053 78.1363 187.053 79.5331 187.882C81.1433 188.837 82.8718 189.519 84.6777 189.947C86.1042 195.672 92.4312 200 99.9999 200C107.569 200 113.896 195.672 115.322 189.948C117.128 189.52 118.857 188.837 120.467 187.882C121.864 187.053 123.137 186.053 124.282 184.905C139.056 172.338 172.416 162.473 172.753 162.374C173.567 162.136 174.25 161.576 174.643 160.824C175.037 160.072 175.108 159.192 174.839 158.387L172.823 152.339C175.773 152.172 180.222 152.508 183.886 153.087C183.909 153.09 183.932 153.09 183.954 153.093C184.031 153.104 184.107 153.111 184.185 153.115C184.228 153.118 184.272 153.121 184.315 153.122C184.335 153.123 184.355 153.125 184.375 153.125C184.582 153.125 184.79 153.102 184.994 153.061C185.017 153.057 185.039 153.051 185.062 153.046C185.16 153.024 185.257 152.997 185.353 152.966C185.369 152.96 185.385 152.956 185.401 152.95C185.619 152.874 185.832 152.773 186.033 152.646C186.057 152.63 186.08 152.615 186.104 152.599C186.178 152.549 186.251 152.496 186.321 152.439C186.346 152.42 186.371 152.401 186.394 152.381C186.408 152.37 186.423 152.36 186.436 152.348C186.504 152.289 186.566 152.226 186.627 152.163C186.635 152.154 186.644 152.148 186.651 152.139C186.653 152.138 186.653 152.137 186.655 152.136C186.739 152.045 186.817 151.951 186.889 151.853C186.9 151.838 186.91 151.822 186.921 151.807C186.979 151.725 187.034 151.64 187.083 151.554C187.098 151.529 187.111 151.503 187.125 151.477C187.168 151.396 187.208 151.314 187.244 151.23C187.255 151.204 187.267 151.177 187.278 151.15C187.315 151.055 187.348 150.959 187.376 150.862C187.38 150.846 187.386 150.832 187.39 150.817C187.42 150.704 187.444 150.589 187.462 150.474C187.466 150.448 187.467 150.421 187.471 150.394C187.482 150.306 187.49 150.218 187.494 150.13C187.495 150.091 187.495 150.053 187.496 150.015C187.497 149.931 187.494 149.849 187.488 149.767ZM99.9999 193.75C96.4398 193.75 93.2691 192.345 91.6882 190.339C94.4175 190.029 97.2198 189.211 99.9999 187.883C102.78 189.211 105.582 190.03 108.312 190.339C106.73 192.345 103.56 193.75 99.9999 193.75ZM99.9882 174.65C95.9574 172.551 93.7499 169.92 93.7499 168.75C93.7499 165.304 96.5538 162.5 99.9999 162.5C103.446 162.5 106.25 165.304 106.25 168.75C106.25 170.376 103.16 172.962 99.9882 174.65ZM146.925 138.059C147.234 139.757 148.86 140.885 150.559 140.575C153.669 140.009 164.989 139.823 174.936 146.056C172.065 146.044 169.234 146.31 167.409 147.177C165.983 147.855 165.286 149.49 165.785 150.988L167.9 157.332C164.451 158.432 158.462 160.438 151.612 163.152C143.294 166.447 136.224 169.778 130.453 173.113C130.976 170.777 131.25 168.27 131.25 165.625C131.25 153.82 135.55 148.654 139.156 146.4C140.62 145.485 141.064 143.557 140.15 142.094C139.235 140.63 137.308 140.185 135.844 141.1C128.75 145.534 125 154.014 125 165.625C125 171.918 123.172 177.129 119.899 180.444C119.861 180.482 119.824 180.52 119.789 180.559C119.026 181.313 118.188 181.967 117.276 182.508C113.311 184.862 108.337 184.819 103.125 182.44V180.062C106.47 178.263 112.5 174.257 112.5 168.75C112.5 161.857 106.893 156.25 99.9999 156.25C93.1074 156.25 87.4999 161.857 87.4999 168.75C87.4999 174.257 93.53 178.263 96.8749 180.062V182.44C91.6624 184.82 86.6886 184.862 82.7234 182.508C81.812 181.967 80.9738 181.313 80.2113 180.559C80.1757 180.52 80.1386 180.482 80.1007 180.444C76.8277 177.129 74.9999 171.918 74.9999 165.625C74.9999 154.014 71.2503 145.534 64.1562 141.1C62.6921 140.185 60.7644 140.63 59.8499 142.094C58.9355 143.557 59.38 145.486 60.8437 146.4C64.4503 148.654 68.7499 153.82 68.7499 165.625C68.7499 168.27 69.0234 170.777 69.5464 173.113C63.7761 169.778 56.7054 166.447 48.3882 163.152C41.5378 160.438 35.5484 158.432 32.0999 157.332L34.2148 150.988C34.714 149.49 34.0175 147.855 32.591 147.177C30.7652 146.31 27.9347 146.044 25.0636 146.056C35.0113 139.823 46.33 140.009 49.441 140.575C51.1398 140.885 52.7656 139.757 53.0745 138.059C53.3831 136.361 52.257 134.734 50.5589 134.426C46.0292 133.602 33.0163 133.611 21.5652 140.871C24.9949 130.766 31.7124 114.75 42.962 102.075C44.6398 100.184 44.7042 97.357 41.7738 66.2039C40.5824 53.5391 39.2324 39.1848 38.5828 27.4641C38.257 21.5859 38.1632 17.2703 38.1968 14.0973C44.6988 26.2824 57.2171 50.2594 62.9628 61.2812L53.7378 59.4359C52.5367 59.1961 51.3058 59.6793 50.5898 60.673C49.8738 61.6668 49.8038 62.9871 50.4117 64.0504C52.8359 68.293 56.2499 75.4641 56.2499 78.125C56.2499 82.1855 51.6894 84.7234 51.6589 84.7402C50.1347 85.55 49.5558 87.4422 50.3652 88.966C50.9269 90.023 52.0085 90.6258 53.1277 90.6258C53.6222 90.6258 54.1242 90.5082 54.5913 90.2598C54.914 90.0883 62.4999 85.968 62.4999 78.125C62.4999 75.1164 60.6785 70.5566 58.9136 66.8445L68.137 68.6895C69.3159 68.925 70.5261 68.4637 71.2488 67.5016C71.971 66.5402 72.0773 65.2492 71.5222 64.182C70.5476 62.3098 49.8628 22.568 42.2667 8.45742C46.664 11.9629 52.0077 19.1785 57.5722 26.693C65.4456 37.325 74.3691 49.3754 85.4995 58.6504C85.8831 58.9699 86.3206 59.1785 86.7753 59.2867C87.3995 59.6773 88.1613 59.8535 88.9437 59.723C91.7628 59.2535 95.7925 58.9844 99.9999 58.9844C104.207 58.9844 108.237 59.2535 111.057 59.7234C111.23 59.7523 111.403 59.766 111.574 59.766C112.173 59.766 112.742 59.591 113.228 59.2863C113.682 59.1781 114.118 58.9695 114.501 58.6508C125.631 49.3758 134.555 37.3254 142.428 26.6934C147.993 19.1793 153.336 11.9637 157.734 8.45781C150.137 22.5684 129.452 62.3102 128.478 64.1824C127.923 65.2492 128.029 66.5402 128.751 67.502C129.474 68.4637 130.685 68.9258 131.863 68.6898L141.087 66.8449C139.321 70.5566 137.5 75.1164 137.5 78.125C137.5 85.968 145.086 90.0883 145.409 90.2598C145.876 90.5078 146.378 90.6258 146.873 90.6258C147.991 90.6258 149.073 90.0234 149.635 88.966C150.445 87.4422 149.866 85.55 148.341 84.7402C148.295 84.716 143.75 82.1875 143.75 78.125C143.75 75.4699 147.164 68.2961 149.589 64.05C150.196 62.9863 150.126 61.666 149.41 60.6727C148.694 59.6793 147.462 59.1957 146.262 59.4355L137.037 61.2809C142.783 50.259 155.301 26.2824 161.803 14.0969C161.837 17.2703 161.743 21.5855 161.417 27.4637C160.768 39.1844 159.417 53.5387 158.226 66.2035C155.296 97.3563 155.36 100.184 157.038 102.074C168.267 114.727 174.991 130.753 178.428 140.866C166.978 133.611 153.968 133.602 149.441 134.425C147.743 134.734 146.617 136.361 146.925 138.059Z" fill="#A2A2A2"/>
</svg>
