<svg width="90" height="90" viewBox="0 0 90 90" fill="none" xmlns="http://www.w3.org/2000/svg">
<circle cx="45" cy="45" r="45" fill="#CCCCCC"/>
<path d="M36.4283 50.625C35.2468 50.625 34.2854 51.4662 34.2854 52.5C34.2854 53.5338 35.2468 54.375 36.4283 54.375C37.6099 54.375 38.5713 53.5338 38.5713 52.5C38.5713 51.4662 37.6099 50.625 36.4283 50.625Z" fill="#FF5C00"/>
<path d="M74.9972 59.93C74.9963 59.9196 74.9958 59.9093 74.9944 59.8989C74.9901 59.8643 74.9842 59.8298 74.9757 59.7959C74.975 59.7932 74.9743 59.7905 74.9735 59.7878C74.8577 59.3361 72.6104 50.8398 66.3136 44.531C66.1861 43.5161 66.6692 39.0218 67.0977 35.0367C67.5204 31.1047 67.9994 26.648 68.2167 23.0389C68.58 17.002 68.0351 15.9434 67.4956 15.4248C67.2107 15.1508 66.8321 15 66.4296 15C63.6586 15 61.2118 17.8909 57.8252 21.8921C55.2415 24.9449 52.3173 28.3962 48.7804 31.0192C47.7341 30.8906 46.4102 30.8203 45.0001 30.8203C43.59 30.8203 42.2661 30.8906 41.2198 31.0192C37.6827 28.3962 34.7587 24.9449 32.1749 21.8921C28.7884 17.8909 26.3416 15 23.5706 15C23.1681 15 22.7895 15.1508 22.5046 15.4248C21.9651 15.9432 21.42 17.002 21.7835 23.0389C22.0008 26.648 22.4798 31.1047 22.9025 35.0367C23.331 39.0217 23.8141 43.5161 23.6866 44.531C17.3898 50.8398 15.1425 59.3361 15.0267 59.7878C15.026 59.7905 15.0253 59.7932 15.0245 59.7959C15.0158 59.83 15.0099 59.8644 15.0058 59.899C15.0044 59.9093 15.0039 59.9196 15.003 59.93C15.0008 59.9548 14.9999 59.9795 15 60.0042C15 60.0158 15.0001 60.0273 15.0007 60.0388C15.0019 60.0652 15.0047 60.0913 15.0085 60.1175C15.0097 60.1257 15.0102 60.1341 15.0117 60.1423C15.0177 60.1766 15.0259 60.2107 15.0362 60.2445C15.0378 60.2498 15.0401 60.255 15.0419 60.2604C15.0513 60.2887 15.062 60.3165 15.0745 60.3441C15.0785 60.3529 15.0829 60.3615 15.0872 60.3703C15.0991 60.3946 15.1122 60.4184 15.1266 60.4419C15.1317 60.4502 15.1368 60.4587 15.1421 60.4669C15.1585 60.4918 15.1764 60.516 15.1956 60.5398C15.2001 60.5454 15.204 60.5511 15.2087 60.5566C15.2331 60.5855 15.2593 60.6135 15.2878 60.6401C15.2884 60.6407 15.2889 60.6413 15.2894 60.6418C15.2933 60.6455 15.2979 60.6485 15.3019 60.6521C15.3216 60.6698 15.3415 60.6875 15.3631 60.7042C15.3675 60.7076 15.3722 60.7104 15.3766 60.7137C15.3856 60.7205 15.395 60.7266 15.4044 60.7331C15.4275 60.7492 15.4511 60.7644 15.4752 60.7786C15.4843 60.7839 15.4934 60.7894 15.5028 60.7944C15.5352 60.8121 15.5682 60.8286 15.6019 60.843C15.6027 60.8434 15.6035 60.8439 15.6045 60.8442C15.6412 60.8597 15.6785 60.8729 15.7166 60.8845C15.7238 60.8868 15.731 60.8885 15.7383 60.8906C15.7691 60.8994 15.8001 60.9069 15.8315 60.9131C15.8409 60.9151 15.8502 60.917 15.8597 60.9186C15.8982 60.9253 15.9366 60.9308 15.9755 60.9339C15.9765 60.9339 15.9775 60.9339 15.9785 60.934C16.0089 60.9362 16.0393 60.9375 16.0699 60.9375C16.0763 60.9375 16.0827 60.9367 16.0893 60.9367C16.1052 60.9364 16.1212 60.9354 16.1371 60.9345C16.1628 60.933 16.1883 60.9309 16.2139 60.928C16.2219 60.9271 16.2299 60.9271 16.238 60.9259C17.4944 60.7519 19.0211 60.6554 20.0301 60.7042L19.3399 62.5159C19.2477 62.7575 19.2721 63.0214 19.407 63.2472C19.542 63.4727 19.776 63.6405 20.0554 63.7122C20.1707 63.7417 31.6045 66.6981 36.6745 70.4715C37.0672 70.8158 37.5037 71.1158 37.9826 71.3645C38.5347 71.6512 39.1273 71.8557 39.7465 71.9842C40.2357 73.7017 42.405 75 45.0001 75C47.5952 75 49.7645 73.7016 50.2537 71.9843C50.873 71.8559 51.4656 71.6512 52.0176 71.3646C52.4965 71.1158 52.933 70.8159 53.3257 70.4716C58.3914 66.7015 69.8296 63.7418 69.945 63.7123C70.2242 63.6408 70.4583 63.4729 70.5932 63.2472C70.7281 63.0216 70.7525 62.7575 70.6603 62.516L69.9691 60.7016C70.9804 60.6517 72.5061 60.7525 73.7624 60.926C73.7701 60.9271 73.7779 60.9271 73.7857 60.928C73.8119 60.9312 73.8382 60.9332 73.8647 60.9346C73.8797 60.9354 73.8946 60.9364 73.9094 60.9367C73.9162 60.9368 73.9231 60.9376 73.9299 60.9376C74.001 60.9376 74.0722 60.9307 74.1422 60.9184C74.15 60.917 74.1577 60.9154 74.1655 60.9138C74.1991 60.9072 74.2325 60.8992 74.2653 60.8897C74.2708 60.888 74.2763 60.8868 74.2816 60.8851C74.3566 60.8623 74.4294 60.8318 74.4985 60.7937C74.5068 60.7891 74.5147 60.7845 74.5228 60.7797C74.5483 60.7648 74.5731 60.7488 74.5973 60.7318C74.6057 60.726 74.6142 60.7204 74.6224 60.7144C74.627 60.7109 74.632 60.7079 74.6367 60.7044C74.6599 60.6866 74.6811 60.6677 74.7022 60.6488C74.7049 60.6463 74.7078 60.6443 74.7105 60.6418C74.7109 60.6415 74.7112 60.641 74.7116 60.6407C74.7406 60.6136 74.7671 60.5852 74.7919 60.5559C74.7957 60.5514 74.799 60.5467 74.8028 60.5421C74.8229 60.5174 74.8415 60.492 74.8585 60.4661C74.8634 60.4586 74.868 60.4508 74.8727 60.4432C74.8875 60.4188 74.9012 60.3942 74.9135 60.369C74.9174 60.3611 74.9214 60.3531 74.9252 60.345C74.938 60.3165 74.9493 60.2877 74.9588 60.2585C74.9603 60.2539 74.9623 60.2496 74.9636 60.245C74.9741 60.2112 74.9822 60.1768 74.9883 60.1423C74.9896 60.1343 74.9901 60.1263 74.9913 60.1182C74.9952 60.0919 74.9979 60.0655 74.9992 60.0389C74.9998 60.0274 74.9998 60.0159 74.9999 60.0045C75.0003 59.9794 74.9992 59.9548 74.9972 59.93ZM45.0001 73.125C43.7794 73.125 42.6923 72.7034 42.1502 72.1016C43.086 72.0088 44.0469 71.7633 45.0001 71.365C45.9533 71.7634 46.9142 72.0089 47.85 72.1016C47.3078 72.7034 46.2206 73.125 45.0001 73.125ZM44.9961 67.395C43.614 66.7654 42.8571 65.9759 42.8571 65.625C42.8571 64.5912 43.8185 63.75 45.0001 63.75C46.1817 63.75 47.143 64.5912 47.143 65.625C47.143 66.1129 46.0835 66.8885 44.9961 67.395ZM61.0895 56.4177C61.1954 56.9271 61.753 57.2654 62.3354 57.1724C63.4019 57.0028 67.2829 56.947 70.6937 58.8168C69.7091 58.8131 68.7386 58.893 68.1127 59.1532C67.6237 59.3565 67.3848 59.8471 67.556 60.2965L68.2811 62.1997C67.0987 62.5295 65.0451 63.1312 62.6963 63.9455C59.8444 64.9341 57.4202 65.9333 55.4418 66.934C55.6211 66.2331 55.7148 65.4809 55.7148 64.6875C55.7148 61.1459 57.1891 59.5963 58.4257 58.92C58.9275 58.6455 59.0799 58.0672 58.7664 57.6281C58.4527 57.1891 57.7919 57.0555 57.2899 57.33C54.8575 58.6601 53.5719 61.2043 53.5719 64.6875C53.5719 66.5753 52.9452 68.1388 51.823 69.1331C51.81 69.1445 51.7973 69.1559 51.7851 69.1677C51.5236 69.394 51.2362 69.59 50.9237 69.7523C49.564 70.4585 47.8587 70.4457 46.0716 69.732V69.0185C47.2185 68.4789 49.286 67.277 49.286 65.625C49.286 63.5572 47.3634 61.875 45.0001 61.875C42.6368 61.875 40.7142 63.5572 40.7142 65.625C40.7142 67.277 42.7817 68.4789 43.9286 69.0185V69.732C42.1414 70.4459 40.436 70.4586 39.0765 69.7523C38.764 69.59 38.4766 69.394 38.2151 69.1677C38.2029 69.156 38.1902 69.1445 38.1772 69.1331C37.055 68.1388 36.4283 66.5753 36.4283 64.6875C36.4283 61.2043 35.1427 58.6601 32.7103 57.33C32.2083 57.0555 31.5473 57.1891 31.2338 57.6281C30.9203 58.0672 31.0727 58.6457 31.5745 58.92C32.8111 59.5963 34.2854 61.1459 34.2854 64.6875C34.2854 65.4809 34.3791 66.2331 34.5584 66.934C32.58 65.9333 30.1556 64.9341 27.3039 63.9455C24.9551 63.1312 22.9015 62.5295 21.7191 62.1997L22.4442 60.2965C22.6154 59.8471 22.3766 59.3565 21.8875 59.1532C21.2614 58.893 20.291 58.8131 19.3065 58.8168C22.7173 56.947 26.5982 57.0028 27.6648 57.1725C28.2473 57.2654 28.8048 56.9272 28.9107 56.4178C29.0165 55.9084 28.6304 55.4203 28.0482 55.3277C26.4951 55.0806 22.0333 55.0833 18.107 57.2613C19.283 54.2297 21.5862 49.425 25.4434 45.6224C26.0187 45.0553 26.0408 44.2071 25.036 34.8612C24.6275 31.0617 24.1646 26.7554 23.9419 23.2392C23.8302 21.4758 23.798 20.1811 23.8095 19.2292C26.0389 22.8847 30.3311 30.0778 32.3011 33.3844L29.1381 32.8308C28.7263 32.7588 28.3042 32.9038 28.0587 33.2019C27.8132 33.5 27.7893 33.8961 27.9977 34.2151C28.8289 35.4879 29.9995 37.6392 29.9995 38.4375C29.9995 39.6557 28.4358 40.417 28.4253 40.4221C27.9027 40.665 27.7042 41.2327 27.9817 41.6898C28.1743 42.0069 28.5452 42.1877 28.9289 42.1877C29.0985 42.1877 29.2706 42.1525 29.4308 42.0779C29.5414 42.0265 32.1424 40.7904 32.1424 38.4375C32.1424 37.5349 31.5179 36.167 30.9128 35.0534L34.0752 35.6068C34.4794 35.6775 34.8944 35.5391 35.1421 35.2505C35.3898 34.9621 35.4262 34.5748 35.2359 34.2546C34.9017 33.6929 27.8095 21.7704 25.205 17.5372C26.7127 18.5889 28.5449 20.7536 30.4528 23.0079C33.1524 26.1975 36.212 29.8126 40.0283 32.5951C40.1598 32.691 40.3099 32.7536 40.4658 32.786C40.6798 32.9032 40.9409 32.9561 41.2092 32.9169C42.1758 32.7761 43.5575 32.6953 45.0001 32.6953C46.4427 32.6953 47.8244 32.7761 48.7911 32.917C48.8507 32.9257 48.9099 32.9298 48.9684 32.9298C49.1738 32.9298 49.369 32.8773 49.5357 32.7859C49.6912 32.7534 49.8409 32.6909 49.972 32.5952C53.7883 29.8127 56.8479 26.1976 59.5475 23.008C61.4554 20.7538 63.2876 18.5891 64.7953 17.5373C62.1908 21.7705 55.0985 33.693 54.7644 34.2547C54.5741 34.5748 54.6106 34.9621 54.8582 35.2506C55.106 35.5391 55.521 35.6777 55.9251 35.607L59.0876 35.0535C58.4823 36.167 57.8578 37.5349 57.8578 38.4375C57.8578 40.7904 60.4588 42.0265 60.5696 42.0779C60.7297 42.1523 60.9017 42.1877 61.0714 42.1877C61.455 42.1877 61.826 42.007 62.0186 41.6898C62.2962 41.2327 62.0976 40.665 61.575 40.4221C61.5592 40.4148 60.0007 39.6562 60.0007 38.4375C60.0007 37.641 61.1713 35.4888 62.0027 34.215C62.2108 33.8959 62.1868 33.4998 61.9413 33.2018C61.6958 32.9038 61.2737 32.7587 60.8621 32.8307L57.6991 33.3843C59.6691 30.0777 63.9612 22.8847 66.1907 19.2291C66.2022 20.1811 66.1702 21.4757 66.0583 23.2391C65.8356 26.7553 65.3726 31.0616 64.9642 34.8611C63.9594 44.2069 63.9815 45.0551 64.5568 45.6223C68.4069 49.418 70.7124 54.2258 71.8908 57.2599C67.965 55.0832 63.5043 55.0805 61.9522 55.3276C61.3698 55.4202 60.9837 55.9083 61.0895 56.4177Z" fill="#FF5C00"/>
<path d="M53.5719 50.625C52.3903 50.625 51.429 51.4662 51.429 52.5C51.429 53.5338 52.3903 54.375 53.5719 54.375C54.7535 54.375 55.7149 53.5338 55.7149 52.5C55.7149 51.4662 54.7535 50.625 53.5719 50.625Z" fill="#FF5C00"/>
</svg>
