<svg width="200" height="200" viewBox="0 0 200 200" fill="none" xmlns="http://www.w3.org/2000/svg">
<circle cx="100" cy="100" r="100" fill="#CCCCCC"/>
<path d="M80.9516 112.5C78.3259 112.5 76.1895 114.369 76.1895 116.667C76.1895 118.964 78.3259 120.833 80.9516 120.833C83.5773 120.833 85.7137 118.964 85.7137 116.667C85.7137 114.369 83.5773 112.5 80.9516 112.5Z" fill="#FF5C00"/>
<path d="M166.661 133.178C166.659 133.155 166.657 133.132 166.654 133.109C166.645 133.032 166.632 132.955 166.613 132.88C166.611 132.874 166.61 132.868 166.608 132.862C166.351 131.858 161.357 112.977 147.364 98.9578C147.08 96.7024 148.154 86.7151 149.106 77.8594C150.045 69.1216 151.11 59.2177 151.593 51.1977C152.4 37.7823 151.189 35.4297 149.99 34.2774C149.357 33.6685 148.516 33.3333 147.621 33.3333C141.464 33.3333 136.026 39.7576 128.501 48.6492C122.759 55.4331 116.261 63.1026 108.401 68.9315C106.076 68.6458 103.134 68.4896 100 68.4896C96.8669 68.4896 93.9248 68.6458 91.5997 68.9315C83.7396 63.1026 77.2417 55.4331 71.5 48.6492C63.9744 39.7576 58.537 33.3333 52.3793 33.3333C51.4849 33.3333 50.6435 33.6685 50.0104 34.2774C48.8116 35.4294 47.6002 37.7823 48.408 51.1977C48.8907 59.2177 49.9554 69.1216 50.8947 77.8594C51.8468 86.7149 52.9204 96.7024 52.637 98.9578C38.6442 112.977 33.6502 131.858 33.3928 132.862C33.3913 132.868 33.3898 132.874 33.388 132.88C33.3686 132.955 33.3555 133.032 33.3463 133.109C33.3433 133.132 33.3422 133.155 33.3401 133.178C33.3353 133.233 33.3332 133.288 33.3335 133.343C33.3335 133.368 33.3338 133.394 33.335 133.42C33.3377 133.478 33.3439 133.536 33.3523 133.595C33.355 133.613 33.3561 133.631 33.3594 133.649C33.3728 133.726 33.391 133.802 33.4139 133.877C33.4175 133.889 33.4225 133.9 33.4267 133.912C33.4475 133.975 33.4713 134.037 33.499 134.098C33.5079 134.117 33.5178 134.137 33.5273 134.156C33.5538 134.21 33.5829 134.263 33.6148 134.315C33.6261 134.334 33.6374 134.353 33.6493 134.371C33.6856 134.426 33.7255 134.48 33.7681 134.533C33.7782 134.545 33.7868 134.558 33.7972 134.57C33.8514 134.634 33.9097 134.697 33.9731 134.756C33.9743 134.757 33.9755 134.758 33.9767 134.76C33.9853 134.768 33.9955 134.774 34.0044 134.783C34.0481 134.822 34.0925 134.861 34.1404 134.898C34.1502 134.906 34.1606 134.912 34.1705 134.919C34.1904 134.934 34.2112 134.948 34.2321 134.963C34.2836 134.998 34.3359 135.032 34.3895 135.064C34.4098 135.075 34.43 135.088 34.4508 135.099C34.5229 135.138 34.5961 135.175 34.6711 135.207C34.6729 135.208 34.6747 135.209 34.6767 135.209C34.7583 135.244 34.8413 135.273 34.9259 135.299C34.9419 135.304 34.958 135.308 34.9741 135.313C35.0425 135.332 35.1116 135.349 35.1812 135.363C35.2021 135.367 35.2229 135.371 35.244 135.375C35.3294 135.39 35.4149 135.402 35.5012 135.409C35.5036 135.409 35.5056 135.409 35.508 135.409C35.5756 135.414 35.6431 135.417 35.711 135.417C35.7253 135.417 35.7396 135.415 35.7542 135.415C35.7896 135.414 35.825 135.412 35.8604 135.41C35.9176 135.407 35.9741 135.402 36.031 135.396C36.0488 135.394 36.0667 135.393 36.0845 135.391C38.8766 135.004 42.2693 134.79 44.5114 134.898L42.9777 138.924C42.7729 139.461 42.8271 140.048 43.1268 140.549C43.4268 141.051 43.9468 141.423 44.5676 141.583C44.8239 141.648 70.2324 148.218 81.499 156.603C82.3716 157.368 83.3416 158.035 84.406 158.588C85.6328 159.225 86.9498 159.679 88.3258 159.965C89.4127 163.782 94.2335 166.667 100 166.667C105.767 166.667 110.588 163.781 111.675 159.965C113.051 159.68 114.368 159.225 115.595 158.588C116.659 158.035 117.629 157.369 118.502 156.604C129.759 148.226 155.177 141.648 155.433 141.583C156.054 141.424 156.574 141.051 156.874 140.549C157.174 140.048 157.228 139.461 157.023 138.924L155.487 134.892C157.734 134.782 161.125 135.005 163.917 135.391C163.934 135.394 163.951 135.394 163.968 135.396C164.027 135.403 164.085 135.407 164.144 135.41C164.177 135.412 164.21 135.414 164.243 135.415C164.258 135.415 164.274 135.417 164.289 135.417C164.447 135.417 164.605 135.402 164.761 135.374C164.778 135.371 164.795 135.367 164.812 135.364C164.887 135.349 164.961 135.332 165.034 135.31C165.046 135.307 165.059 135.304 165.07 135.3C165.237 135.249 165.399 135.182 165.552 135.097C165.571 135.087 165.588 135.077 165.606 135.066C165.663 135.033 165.718 134.997 165.772 134.96C165.791 134.947 165.809 134.934 165.828 134.921C165.838 134.913 165.849 134.907 165.859 134.899C165.911 134.859 165.958 134.817 166.005 134.775C166.011 134.77 166.018 134.765 166.023 134.76C166.024 134.759 166.025 134.758 166.026 134.757C166.09 134.697 166.149 134.634 166.204 134.569C166.213 134.559 166.22 134.548 166.229 134.538C166.273 134.483 166.315 134.427 166.352 134.369C166.363 134.352 166.373 134.335 166.384 134.318C166.417 134.264 166.447 134.209 166.475 134.153C166.483 134.136 166.492 134.118 166.501 134.1C166.529 134.037 166.554 133.973 166.575 133.908C166.579 133.898 166.583 133.888 166.586 133.878C166.609 133.803 166.627 133.726 166.641 133.649C166.644 133.632 166.645 133.614 166.648 133.596C166.656 133.538 166.662 133.479 166.665 133.42C166.666 133.394 166.666 133.369 166.667 133.343C166.668 133.288 166.665 133.233 166.661 133.178ZM100 162.5C97.2878 162.5 94.8719 161.563 93.6674 160.226C95.7469 160.02 97.8821 159.474 100 158.589C102.119 159.474 104.254 160.02 106.333 160.226C105.129 161.563 102.713 162.5 100 162.5ZM99.9914 149.767C96.9202 148.367 95.2383 146.613 95.2383 145.833C95.2383 143.536 97.3747 141.667 100 141.667C102.626 141.667 104.762 143.536 104.762 145.833C104.762 146.917 102.408 148.641 99.9914 149.767ZM135.755 125.373C135.99 126.505 137.229 127.257 138.523 127.05C140.893 126.673 149.518 126.549 157.097 130.704C154.909 130.696 152.753 130.873 151.362 131.452C150.275 131.903 149.744 132.993 150.125 133.992L151.736 138.222C149.108 138.954 144.545 140.292 139.325 142.101C132.988 144.298 127.601 146.519 123.204 148.742C123.603 147.185 123.811 145.513 123.811 143.75C123.811 135.88 127.087 132.436 129.835 130.933C130.95 130.323 131.289 129.038 130.592 128.063C129.895 127.087 128.427 126.79 127.311 127.4C121.906 130.356 119.049 136.01 119.049 143.75C119.049 147.945 117.656 151.42 115.162 153.629C115.133 153.654 115.105 153.68 115.078 153.706C114.497 154.209 113.858 154.645 113.164 155.005C110.142 156.574 106.353 156.546 102.381 154.96V153.374C104.93 152.175 109.525 149.504 109.525 145.833C109.525 141.238 105.252 137.5 100 137.5C94.7487 137.5 90.4762 141.238 90.4762 145.833C90.4762 149.504 95.0707 152.175 97.6193 153.374V154.96C93.6477 156.546 89.858 156.575 86.8367 155.005C86.1423 154.645 85.5036 154.209 84.9226 153.706C84.8956 153.68 84.8673 153.654 84.8384 153.629C82.3446 151.42 80.9519 147.945 80.9519 143.75C80.9519 136.01 78.095 130.356 72.6897 127.4C71.5742 126.79 70.1053 127.087 69.4086 128.063C68.7118 129.038 69.0505 130.324 70.1658 130.933C72.9138 132.436 76.1898 135.88 76.1898 143.75C76.1898 145.513 76.3982 147.185 76.7967 148.742C72.4001 146.519 67.0126 144.298 60.6755 142.101C55.4559 140.292 50.8923 138.954 48.2648 138.222L49.8762 133.992C50.2566 132.993 49.7259 131.903 48.6389 131.452C47.2478 130.873 45.0912 130.696 42.9036 130.704C50.4831 126.549 59.1073 126.673 61.4776 127.05C62.772 127.257 64.0107 126.505 64.2462 125.373C64.4813 124.241 63.6232 123.156 62.3294 122.951C58.8781 122.401 48.9631 122.407 40.238 127.247C42.8512 120.51 47.9696 109.833 56.5411 101.383C57.8194 100.123 57.8685 98.238 55.6357 77.4693C54.7279 69.0261 53.6993 59.4565 53.2043 51.6427C52.9561 47.724 52.8847 44.8469 52.9103 42.7315C57.8643 50.855 67.4025 66.8396 71.7804 74.1875L64.7515 72.9573C63.8363 72.7974 62.8985 73.1195 62.3529 73.782C61.8074 74.4445 61.7541 75.3247 62.2172 76.0336C64.0643 78.862 66.6656 83.6427 66.6656 85.4167C66.6656 88.1237 63.1908 89.8156 63.1675 89.8268C62.0062 90.3667 61.5651 91.6281 62.1818 92.644C62.6098 93.3487 63.4339 93.7505 64.2866 93.7505C64.6634 93.7505 65.0459 93.6721 65.4019 93.5065C65.6477 93.3922 71.4277 90.6453 71.4277 85.4167C71.4277 83.4109 70.0399 80.3711 68.6952 77.8964L75.7228 79.1263C76.6211 79.2833 77.5432 78.9758 78.0938 78.3344C78.6441 77.6935 78.7251 76.8328 78.3021 76.1214C77.5595 74.8732 61.799 48.3787 56.0113 38.9716C59.3617 41.3086 63.4333 46.119 67.6731 51.1287C73.6722 58.2167 80.4713 66.2503 88.952 72.4336C89.2443 72.6466 89.5776 72.7857 89.924 72.8578C90.3997 73.1182 90.98 73.2357 91.5762 73.1487C93.7242 72.8357 96.7946 72.6563 100 72.6563C103.206 72.6563 106.277 72.8357 108.425 73.149C108.557 73.1682 108.689 73.1774 108.819 73.1774C109.275 73.1774 109.709 73.0607 110.079 72.8576C110.425 72.7854 110.758 72.6464 111.049 72.4339C119.53 66.2505 126.329 58.2169 132.328 51.1289C136.568 46.1195 140.639 41.3091 143.99 38.9719C138.202 48.3789 122.441 74.8734 121.699 76.1216C121.276 76.8328 121.357 77.6935 121.907 78.3346C122.458 78.9758 123.38 79.2839 124.278 79.1266L131.306 77.8966C129.961 80.3711 128.573 83.4109 128.573 85.4167C128.573 90.6453 134.353 93.3922 134.599 93.5065C134.955 93.6719 135.337 93.7505 135.714 93.7505C136.567 93.7505 137.391 93.349 137.819 92.644C138.436 91.6281 137.995 90.3667 136.834 89.8268C136.798 89.8107 133.335 88.125 133.335 85.4167C133.335 83.6466 135.936 78.8641 137.784 76.0333C138.246 75.3242 138.193 74.444 137.648 73.7818C137.102 73.1195 136.164 72.7971 135.249 72.957L128.22 74.1872C132.598 66.8393 142.136 50.855 147.09 42.7313C147.116 44.8469 147.045 47.7237 146.796 51.6425C146.301 59.4563 145.273 69.0258 144.365 77.469C142.132 98.2375 142.181 100.122 143.46 101.383C152.015 109.818 157.139 120.502 159.757 127.244C151.034 122.407 141.121 122.401 137.672 122.95C136.378 123.156 135.519 124.241 135.755 125.373Z" fill="#FF5C00"/>
<path d="M119.048 112.5C116.423 112.5 114.286 114.369 114.286 116.667C114.286 118.964 116.423 120.833 119.048 120.833C121.674 120.833 123.81 118.964 123.81 116.667C123.81 114.369 121.674 112.5 119.048 112.5Z" fill="#FF5C00"/>
</svg>
