<svg width="64" height="61" viewBox="0 0 64 61" fill="none" xmlns="http://www.w3.org/2000/svg">
<path d="M47.9813 35.2427C47.6792 35.248 47.3915 35.3714 47.1811 35.5861C46.9707 35.8008 46.8547 36.0892 46.8584 36.3884V43.2012H40.0008C39.7014 43.2078 39.4166 43.3305 39.2072 43.543C38.9978 43.7555 38.8806 44.0409 38.8806 44.3382C38.8806 44.6354 38.9978 44.9209 39.2072 45.1334C39.4166 45.3459 39.7014 45.4685 40.0008 45.4751H46.8584V52.2057C46.8462 52.3613 46.8665 52.5178 46.9182 52.6652C46.97 52.8126 47.0519 52.9478 47.1589 53.0624C47.2659 53.177 47.3957 53.2685 47.5401 53.331C47.6845 53.3935 47.8404 53.4258 47.998 53.4258C48.1556 53.4258 48.3115 53.3935 48.4559 53.331C48.6003 53.2685 48.7301 53.177 48.8371 53.0624C48.9441 52.9478 49.026 52.8126 49.0778 52.6652C49.1295 52.5178 49.1498 52.3613 49.1376 52.2057V45.4751H55.9974C56.15 45.4785 56.3016 45.4515 56.4436 45.3959C56.5855 45.3403 56.7148 45.257 56.8238 45.1511C56.9329 45.0452 57.0196 44.9188 57.0787 44.7792C57.1379 44.6396 57.1684 44.4896 57.1684 44.3382C57.1684 44.1867 57.1379 44.0368 57.0787 43.8972C57.0196 43.7576 56.9329 43.631 56.8238 43.5251C56.7148 43.4192 56.5855 43.3361 56.4436 43.2804C56.3016 43.2248 56.15 43.1979 55.9974 43.2012H49.1376V36.3884C49.1394 36.2375 49.1108 36.0878 49.0534 35.9479C48.9959 35.8081 48.9108 35.6811 48.8031 35.5743C48.6953 35.4676 48.5671 35.3833 48.426 35.3264C48.2849 35.2694 48.1337 35.2409 47.9813 35.2427Z" fill="#A2A2A2"/>
<path d="M17.1421 0C12.1047 0 7.99438 4.08686 7.99438 9.09548C7.99438 14.104 12.1047 18.191 17.1421 18.191C22.1795 18.191 26.2814 14.104 26.2814 9.09548C26.2814 4.0869 22.1795 0 17.1421 0ZM17.1421 2.2739C20.9438 2.2739 23.9944 5.31547 23.9944 9.09548C23.9944 12.8755 20.9438 15.9171 17.1421 15.9171C13.3404 15.9171 10.2813 12.8755 10.2813 9.09548C10.2813 5.31547 13.3404 2.2739 17.1421 2.2739Z" fill="#A2A2A2"/>
<path d="M17.144 20.4615C20.8181 20.4615 24.2192 21.6005 27.0086 23.5414C27.5399 23.8805 27.6953 24.5828 27.3546 25.1114C27.0137 25.6398 26.3165 25.7792 25.7853 25.4401C23.3571 23.7329 20.3757 22.7289 17.144 22.7289C8.88886 22.7289 2.28588 29.2614 2.28588 37.4091V40.9264H21.7136C22.3448 40.9264 22.8565 41.4356 22.8565 42.0635C22.8565 42.6914 22.3448 43.2003 21.7136 43.2003H1.13848C0.507333 43.198 -0.00232469 42.6868 7.97549e-06 42.0589V37.4091C7.97549e-06 28.0329 7.66999 20.4617 17.144 20.4617L17.144 20.4615Z" fill="#A2A2A2"/>
<path d="M42.2883 0C37.2532 0 33.1448 4.08686 33.1448 9.09548C33.1448 14.104 37.2532 18.191 42.2883 18.191C47.3233 18.191 51.4317 14.104 51.4317 9.09548C51.4317 4.0869 47.3233 0 42.2883 0ZM42.2883 2.2739C46.0882 2.2739 49.1459 5.31547 49.1459 9.09548C49.1459 12.8755 46.0882 15.9171 42.2883 15.9171C38.4883 15.9171 35.4306 12.8755 35.4306 9.09548C35.4306 5.31547 38.4883 2.2739 42.2883 2.2739Z" fill="#A2A2A2"/>
<path d="M42.2864 20.4627C32.8123 20.4627 25.1423 28.0339 25.1423 37.4101V42.0599C25.1401 42.6878 25.6497 43.1989 26.2808 43.2014H28.7118C29.343 43.2014 29.8547 42.6922 29.8547 42.0643C29.8547 41.4365 29.343 40.9274 28.7118 40.9274H27.4282V37.4101C27.4282 29.2624 34.0312 22.7299 42.2864 22.7299C46.0973 22.7299 49.5582 24.1243 52.1777 26.4249C52.6783 26.8754 53.2957 26.9461 53.7738 26.5357C54.2524 26.1262 54.3059 25.4063 53.8943 24.9302C50.8417 22.1556 46.765 20.4624 42.2864 20.4624L42.2864 20.4627Z" fill="#A2A2A2"/>
<path d="M47.9989 28.4217C39.1775 28.4217 31.9978 35.5654 31.9978 44.3427C31.9978 53.12 39.1775 60.2554 47.9989 60.2554C56.8204 60.2554 64 53.12 64 44.3427C64 35.5654 56.8204 28.4217 47.9989 28.4217ZM47.9989 30.6961C55.5853 30.6961 61.7141 36.7943 61.7141 44.3427C61.7141 51.8911 55.5853 57.9809 47.9989 57.9809C40.4125 57.9809 34.2837 51.8911 34.2837 44.3427C34.2837 36.7943 40.4125 30.6961 47.9989 30.6961Z" fill="#A2A2A2"/>
</svg>
